<svg width="214" height="61" viewBox="0 0 214 61" fill="none" xmlns="http://www.w3.org/2000/svg">
<path d="M36.1916 35.3855L42.1067 42.2948L26.0987 61L10.0929 42.2973L16.008 35.3855L26.1009 47.2401L36.1916 35.3855V35.3855ZM46.2867 23.5921L52.2497 30.5013L46.3389 37.4105L40.4238 30.5013L46.2867 23.5921V23.5921ZM26.1009 23.5921L32.0138 30.4402L26.0987 37.352L20.1858 30.5013L26.0987 23.5946L26.1009 23.5921ZM5.91292 23.5921L11.7779 30.5013L5.91727 37.3494L0 30.5013L5.91292 23.5921V23.5921ZM26.1031 0L42.1089 18.6467L36.1938 25.5534L26.1009 13.7599L16.0102 25.6145L10.0951 18.7052L26.1009 0.00254389L26.1031 0Z" fill="white" fill-opacity="0.5"/>
<path d="M75.584 33.48C76.8853 33.7573 77.9307 34.408 78.72 35.432C79.5093 36.4347 79.904 37.5867 79.904 38.888C79.904 40.7653 79.2427 42.2587 77.92 43.368C76.6187 44.456 74.7947 45 72.448 45H61.984V22.536H72.096C74.3787 22.536 76.16 23.0587 77.44 24.104C78.7413 25.1493 79.392 26.568 79.392 28.36C79.392 29.6827 79.04 30.7813 78.336 31.656C77.6533 32.5307 76.736 33.1387 75.584 33.48ZM67.456 31.624H71.04C71.936 31.624 72.6187 31.432 73.088 31.048C73.5787 30.6427 73.824 30.056 73.824 29.288C73.824 28.52 73.5787 27.9333 73.088 27.528C72.6187 27.1227 71.936 26.92 71.04 26.92H67.456V31.624ZM71.488 40.584C72.4053 40.584 73.1093 40.3813 73.6 39.976C74.112 39.5493 74.368 38.9413 74.368 38.152C74.368 37.3627 74.1013 36.744 73.568 36.296C73.056 35.848 72.3413 35.624 71.424 35.624H67.456V40.584H71.488ZM89.0297 22.536V45H83.5577V22.536H89.0297ZM113.571 45H108.099L98.9472 31.144V45H93.4752V22.536H98.9472L108.099 36.456V22.536H113.571V45ZM132.002 41.032H123.618L122.274 45H116.546L124.674 22.536H131.01L139.138 45H133.346L132.002 41.032ZM130.594 36.808L127.81 28.584L125.058 36.808H130.594ZM162.188 45H156.715L147.563 31.144V45H142.091V22.536H147.563L156.715 36.456V22.536H162.188V45ZM165.706 33.736C165.706 31.5173 166.186 29.544 167.146 27.816C168.106 26.0667 169.439 24.712 171.146 23.752C172.874 22.7707 174.826 22.28 177.002 22.28C179.669 22.28 181.951 22.984 183.85 24.392C185.749 25.8 187.018 27.72 187.658 30.152H181.642C181.194 29.2133 180.554 28.4987 179.722 28.008C178.911 27.5173 177.983 27.272 176.938 27.272C175.253 27.272 173.887 27.8587 172.842 29.032C171.797 30.2053 171.274 31.7733 171.274 33.736C171.274 35.6987 171.797 37.2667 172.842 38.44C173.887 39.6133 175.253 40.2 176.938 40.2C177.983 40.2 178.911 39.9547 179.722 39.464C180.554 38.9733 181.194 38.2587 181.642 37.32H187.658C187.018 39.752 185.749 41.672 183.85 43.08C181.951 44.4667 179.669 45.16 177.002 45.16C174.826 45.16 172.874 44.68 171.146 43.72C169.439 42.7387 168.106 41.384 167.146 39.656C166.186 37.928 165.706 35.9547 165.706 33.736ZM196.961 26.92V31.464H204.289V35.688H196.961V40.616H205.249V45H191.489V22.536H205.249V26.92H196.961Z" fill="white" fill-opacity="0.5"/>
</svg>
