<svg width="274" height="67" viewBox="0 0 274 67" fill="none" xmlns="http://www.w3.org/2000/svg">
<mask id="mask0_13_75" style="mask-type:alpha" maskUnits="userSpaceOnUse" x="4" y="3" width="50" height="58">
<path d="M48.284 41.875V20.9375L33.1953 11.1234M24.7456 11.1234L9.65681 20.9375V41.875M13.2781 48.4187L28.9704 58.625L38.6272 52.3438L44.6627 48.4173" stroke="white" stroke-width="4" stroke-linecap="round" stroke-linejoin="round"/>
<path d="M25.3491 26.1719L21.7278 28.6146V38.3854L25.3491 40.8281L28.9704 43.2709L32.5917 40.8281L36.213 38.3854V28.6146L32.5917 26.1719L28.9704 23.7292L25.3491 26.1719Z" fill="#555555" stroke="white" stroke-width="4" stroke-linecap="round" stroke-linejoin="round"/>
<path d="M28.9704 23.7292V13.9583M36.213 37.6875L44.6627 43.2708M21.7278 37.6875L13.2781 43.2708" stroke="white" stroke-width="4" stroke-linecap="round" stroke-linejoin="round"/>
<path d="M28.9704 13.9583C30.9704 13.9583 32.5917 12.0835 32.5917 9.77084C32.5917 7.45815 30.9704 5.58334 28.9704 5.58334C26.9704 5.58334 25.3491 7.45815 25.3491 9.77084C25.3491 12.0835 26.9704 13.9583 28.9704 13.9583Z" fill="#555555" stroke="white" stroke-width="4" stroke-linecap="round" stroke-linejoin="round"/>
<path d="M9.65681 50.25C11.6568 50.25 13.2781 48.3752 13.2781 46.0625C13.2781 43.7498 11.6568 41.875 9.65681 41.875C7.65682 41.875 6.03551 43.7498 6.03551 46.0625C6.03551 48.3752 7.65682 50.25 9.65681 50.25Z" fill="#555555" stroke="white" stroke-width="4" stroke-linecap="round" stroke-linejoin="round"/>
<path d="M48.284 50.25C50.284 50.25 51.9053 48.3752 51.9053 46.0625C51.9053 43.7498 50.284 41.875 48.284 41.875C46.284 41.875 44.6627 43.7498 44.6627 46.0625C44.6627 48.3752 46.284 50.25 48.284 50.25Z" fill="#555555" stroke="white" stroke-width="4" stroke-linecap="round" stroke-linejoin="round"/>
</mask>
<g mask="url(#mask0_13_75)">
<path d="M0 0H57.9408V67H0V0Z" fill="white" fill-opacity="0.5"/>
</g>
<path d="M69.456 32.672C69.968 31.84 70.704 31.168 71.664 30.656C72.624 30.144 73.7227 29.888 74.96 29.888C76.432 29.888 77.7653 30.2613 78.96 31.008C80.1547 31.7547 81.0933 32.8213 81.776 34.208C82.48 35.5947 82.832 37.2053 82.832 39.04C82.832 40.8747 82.48 42.496 81.776 43.904C81.0933 45.2907 80.1547 46.368 78.96 47.136C77.7653 47.8827 76.432 48.256 74.96 48.256C73.7013 48.256 72.6027 48.0107 71.664 47.52C70.7253 47.008 69.9893 46.336 69.456 45.504V48H63.984V24.32H69.456V32.672ZM77.264 39.04C77.264 37.6747 76.88 36.608 76.112 35.84C75.3653 35.0507 74.4373 34.656 73.328 34.656C72.24 34.656 71.312 35.0507 70.544 35.84C69.7973 36.6293 69.424 37.7067 69.424 39.072C69.424 40.4373 69.7973 41.5147 70.544 42.304C71.312 43.0933 72.24 43.488 73.328 43.488C74.416 43.488 75.344 43.0933 76.112 42.304C76.88 41.4933 77.264 40.4053 77.264 39.04ZM91.6547 24.32V48H86.1827V24.32H91.6547ZM104.228 48.256C102.479 48.256 100.9 47.8827 99.4922 47.136C98.1056 46.3893 97.0069 45.3227 96.1962 43.936C95.4069 42.5493 95.0122 40.928 95.0122 39.072C95.0122 37.2373 95.4176 35.6267 96.2282 34.24C97.0389 32.832 98.1482 31.7547 99.5562 31.008C100.964 30.2613 102.543 29.888 104.292 29.888C106.042 29.888 107.62 30.2613 109.028 31.008C110.436 31.7547 111.546 32.832 112.356 34.24C113.167 35.6267 113.572 37.2373 113.572 39.072C113.572 40.9067 113.156 42.528 112.324 43.936C111.514 45.3227 110.394 46.3893 108.964 47.136C107.556 47.8827 105.978 48.256 104.228 48.256ZM104.228 43.52C105.274 43.52 106.159 43.136 106.884 42.368C107.631 41.6 108.004 40.5013 108.004 39.072C108.004 37.6427 107.642 36.544 106.916 35.776C106.212 35.008 105.338 34.624 104.292 34.624C103.226 34.624 102.34 35.008 101.636 35.776C100.932 36.5227 100.58 37.6213 100.58 39.072C100.58 40.5013 100.922 41.6 101.604 42.368C102.308 43.136 103.183 43.52 104.228 43.52ZM115.867 39.072C115.867 37.216 116.241 35.5947 116.987 34.208C117.755 32.8213 118.811 31.7547 120.155 31.008C121.521 30.2613 123.078 29.888 124.827 29.888C127.067 29.888 128.934 30.4747 130.427 31.648C131.942 32.8213 132.934 34.4747 133.403 36.608H127.579C127.089 35.2427 126.139 34.56 124.731 34.56C123.729 34.56 122.929 34.9547 122.331 35.744C121.734 36.512 121.435 37.6213 121.435 39.072C121.435 40.5227 121.734 41.6427 122.331 42.432C122.929 43.2 123.729 43.584 124.731 43.584C126.139 43.584 127.089 42.9013 127.579 41.536H133.403C132.934 43.6267 131.942 45.2693 130.427 46.464C128.913 47.6587 127.046 48.256 124.827 48.256C123.078 48.256 121.521 47.8827 120.155 47.136C118.811 46.3893 117.755 45.3227 116.987 43.936C116.241 42.5493 115.867 40.928 115.867 39.072ZM147.722 48L142.282 40.512V48H136.81V24.32H142.282V37.408L147.69 30.144H154.442L147.018 39.104L154.506 48H147.722ZM155.984 39.072C155.984 37.216 156.357 35.5947 157.104 34.208C157.872 32.8213 158.928 31.7547 160.272 31.008C161.637 30.2613 163.194 29.888 164.944 29.888C167.184 29.888 169.05 30.4747 170.544 31.648C172.058 32.8213 173.05 34.4747 173.52 36.608H167.696C167.205 35.2427 166.256 34.56 164.848 34.56C163.845 34.56 163.045 34.9547 162.448 35.744C161.85 36.512 161.552 37.6213 161.552 39.072C161.552 40.5227 161.85 41.6427 162.448 42.432C163.045 43.2 163.845 43.584 164.848 43.584C166.256 43.584 167.205 42.9013 167.696 41.536H173.52C173.05 43.6267 172.058 45.2693 170.544 46.464C169.029 47.6587 167.162 48.256 164.944 48.256C163.194 48.256 161.637 47.8827 160.272 47.136C158.928 46.3893 157.872 45.3227 157.104 43.936C156.357 42.5493 155.984 40.928 155.984 39.072ZM187.902 29.952C189.95 29.952 191.593 30.6347 192.83 32C194.068 33.344 194.686 35.2 194.686 37.568V48H189.246V38.304C189.246 37.1093 188.937 36.1813 188.318 35.52C187.7 34.8587 186.868 34.528 185.822 34.528C184.777 34.528 183.945 34.8587 183.326 35.52C182.708 36.1813 182.398 37.1093 182.398 38.304V48H176.926V24.32H182.398V32.544C182.953 31.7547 183.71 31.1253 184.67 30.656C185.63 30.1867 186.708 29.952 187.902 29.952ZM197.881 39.04C197.881 37.2053 198.222 35.5947 198.905 34.208C199.609 32.8213 200.558 31.7547 201.753 31.008C202.948 30.2613 204.281 29.888 205.753 29.888C207.012 29.888 208.11 30.144 209.049 30.656C210.009 31.168 210.745 31.84 211.257 32.672V30.144H216.729V48H211.257V45.472C210.724 46.304 209.977 46.976 209.017 47.488C208.078 48 206.98 48.256 205.721 48.256C204.27 48.256 202.948 47.8827 201.753 47.136C200.558 46.368 199.609 45.2907 198.905 43.904C198.222 42.496 197.881 40.8747 197.881 39.04ZM211.257 39.072C211.257 37.7067 210.873 36.6293 210.105 35.84C209.358 35.0507 208.441 34.656 207.353 34.656C206.265 34.656 205.337 35.0507 204.569 35.84C203.822 36.608 203.449 37.6747 203.449 39.04C203.449 40.4053 203.822 41.4933 204.569 42.304C205.337 43.0933 206.265 43.488 207.353 43.488C208.441 43.488 209.358 43.0933 210.105 42.304C210.873 41.5147 211.257 40.4373 211.257 39.072ZM223.92 28.288C222.96 28.288 222.17 28.0107 221.552 27.456C220.954 26.88 220.656 26.176 220.656 25.344C220.656 24.4907 220.954 23.7867 221.552 23.232C222.17 22.656 222.96 22.368 223.92 22.368C224.858 22.368 225.626 22.656 226.224 23.232C226.842 23.7867 227.152 24.4907 227.152 25.344C227.152 26.176 226.842 26.88 226.224 27.456C225.626 28.0107 224.858 28.288 223.92 28.288ZM226.64 30.144V48H221.168V30.144H226.64ZM241.965 29.952C244.056 29.952 245.72 30.6347 246.957 32C248.216 33.344 248.845 35.2 248.845 37.568V48H243.405V38.304C243.405 37.1093 243.096 36.1813 242.477 35.52C241.859 34.8587 241.027 34.528 239.981 34.528C238.936 34.528 238.104 34.8587 237.485 35.52C236.867 36.1813 236.557 37.1093 236.557 38.304V48H231.085V30.144H236.557V32.512C237.112 31.7227 237.859 31.104 238.797 30.656C239.736 30.1867 240.792 29.952 241.965 29.952Z" fill="white" fill-opacity="0.5"/>
</svg>
