<svg width="222" height="60" viewBox="0 0 222 60" fill="none" xmlns="http://www.w3.org/2000/svg">
<path d="M58.816 35.784C58.816 36.296 58.784 36.8293 58.72 37.384H46.336C46.4213 38.4933 46.7733 39.3467 47.392 39.944C48.032 40.52 48.8107 40.808 49.728 40.808C51.0933 40.808 52.0427 40.232 52.576 39.08H58.4C58.1013 40.2533 57.5573 41.3093 56.768 42.248C56 43.1867 55.0293 43.9227 53.856 44.456C52.6827 44.9893 51.3707 45.256 49.92 45.256C48.1707 45.256 46.6133 44.8827 45.248 44.136C43.8827 43.3893 42.816 42.3227 42.048 40.936C41.28 39.5493 40.896 37.928 40.896 36.072C40.896 34.216 41.2693 32.5947 42.016 31.208C42.784 29.8213 43.8507 28.7547 45.216 28.008C46.5813 27.2613 48.1493 26.888 49.92 26.888C51.648 26.888 53.184 27.2507 54.528 27.976C55.872 28.7013 56.9173 29.736 57.664 31.08C58.432 32.424 58.816 33.992 58.816 35.784ZM53.216 34.344C53.216 33.4053 52.896 32.6587 52.256 32.104C51.616 31.5493 50.816 31.272 49.856 31.272C48.9387 31.272 48.16 31.5387 47.52 32.072C46.9013 32.6053 46.5173 33.3627 46.368 34.344H53.216ZM72.1348 40.36V45H69.3507C67.3667 45 65.8201 44.52 64.7107 43.56C63.6014 42.5787 63.0467 40.9893 63.0467 38.792V31.688H60.8707V27.144H63.0467V22.792H68.5188V27.144H72.1027V31.688H68.5188V38.856C68.5188 39.3893 68.6468 39.7733 68.9028 40.008C69.1587 40.2427 69.5854 40.36 70.1827 40.36H72.1348ZM86.6388 26.952C88.6868 26.952 90.3294 27.6347 91.5667 29C92.8041 30.344 93.4228 32.2 93.4228 34.568V45H87.9827V35.304C87.9827 34.1093 87.6734 33.1813 87.0547 32.52C86.4361 31.8587 85.6041 31.528 84.5587 31.528C83.5134 31.528 82.6814 31.8587 82.0627 32.52C81.4441 33.1813 81.1347 34.1093 81.1347 35.304V45H75.6627V21.32H81.1347V29.544C81.6894 28.7547 82.4467 28.1253 83.4067 27.656C84.3667 27.1867 85.4441 26.952 86.6388 26.952ZM114.537 35.784C114.537 36.296 114.505 36.8293 114.441 37.384H102.057C102.143 38.4933 102.495 39.3467 103.113 39.944C103.753 40.52 104.532 40.808 105.449 40.808C106.815 40.808 107.764 40.232 108.297 39.08H114.121C113.823 40.2533 113.279 41.3093 112.489 42.248C111.721 43.1867 110.751 43.9227 109.577 44.456C108.404 44.9893 107.092 45.256 105.641 45.256C103.892 45.256 102.335 44.8827 100.969 44.136C99.6039 43.3893 98.5372 42.3227 97.7692 40.936C97.0012 39.5493 96.6172 37.928 96.6172 36.072C96.6172 34.216 96.9906 32.5947 97.7372 31.208C98.5052 29.8213 99.5719 28.7547 100.937 28.008C102.303 27.2613 103.871 26.888 105.641 26.888C107.369 26.888 108.905 27.2507 110.249 27.976C111.593 28.7013 112.639 29.736 113.385 31.08C114.153 32.424 114.537 33.992 114.537 35.784ZM108.937 34.344C108.937 33.4053 108.617 32.6587 107.977 32.104C107.337 31.5493 106.537 31.272 105.577 31.272C104.66 31.272 103.881 31.5387 103.241 32.072C102.623 32.6053 102.239 33.3627 102.089 34.344H108.937ZM123.376 30.12C124.016 29.1387 124.816 28.3707 125.776 27.816C126.736 27.24 127.803 26.952 128.976 26.952V32.744H127.472C126.107 32.744 125.083 33.0427 124.4 33.64C123.717 34.216 123.376 35.24 123.376 36.712V45H117.904V27.144H123.376V30.12ZM148.904 35.784C148.904 36.296 148.872 36.8293 148.808 37.384H136.424C136.509 38.4933 136.861 39.3467 137.48 39.944C138.12 40.52 138.898 40.808 139.816 40.808C141.181 40.808 142.13 40.232 142.664 39.08H148.488C148.189 40.2533 147.645 41.3093 146.856 42.248C146.088 43.1867 145.117 43.9227 143.944 44.456C142.77 44.9893 141.458 45.256 140.008 45.256C138.258 45.256 136.701 44.8827 135.336 44.136C133.97 43.3893 132.904 42.3227 132.136 40.936C131.368 39.5493 130.984 37.928 130.984 36.072C130.984 34.216 131.357 32.5947 132.104 31.208C132.872 29.8213 133.938 28.7547 135.304 28.008C136.669 27.2613 138.237 26.888 140.008 26.888C141.736 26.888 143.272 27.2507 144.616 27.976C145.96 28.7013 147.005 29.736 147.752 31.08C148.52 32.424 148.904 33.992 148.904 35.784ZM143.304 34.344C143.304 33.4053 142.984 32.6587 142.344 32.104C141.704 31.5493 140.904 31.272 139.944 31.272C139.026 31.272 138.248 31.5387 137.608 32.072C136.989 32.6053 136.605 33.3627 136.456 34.344H143.304ZM169.902 27.144V45H164.43V42.568C163.876 43.3573 163.118 43.9973 162.158 44.488C161.22 44.9573 160.174 45.192 159.022 45.192C157.657 45.192 156.452 44.8933 155.406 44.296C154.361 43.6773 153.55 42.792 152.974 41.64C152.398 40.488 152.11 39.1333 152.11 37.576V27.144H157.55V36.84C157.55 38.0347 157.86 38.9627 158.478 39.624C159.097 40.2853 159.929 40.616 160.974 40.616C162.041 40.616 162.884 40.2853 163.502 39.624C164.121 38.9627 164.43 38.0347 164.43 36.84V27.144H169.902ZM197.097 26.952C199.315 26.952 201.075 27.624 202.377 28.968C203.699 30.312 204.361 32.1787 204.361 34.568V45H198.921V35.304C198.921 34.152 198.611 33.2667 197.993 32.648C197.395 32.008 196.563 31.688 195.497 31.688C194.43 31.688 193.587 32.008 192.969 32.648C192.371 33.2667 192.073 34.152 192.073 35.304V45H186.633V35.304C186.633 34.152 186.323 33.2667 185.705 32.648C185.107 32.008 184.275 31.688 183.209 31.688C182.142 31.688 181.299 32.008 180.681 32.648C180.083 33.2667 179.785 34.152 179.785 35.304V45H174.313V27.144H179.785V29.384C180.339 28.6373 181.065 28.0507 181.961 27.624C182.857 27.176 183.87 26.952 185.001 26.952C186.345 26.952 187.539 27.24 188.585 27.816C189.651 28.392 190.483 29.2133 191.081 30.28C191.699 29.2987 192.542 28.4987 193.609 27.88C194.675 27.2613 195.838 26.952 197.097 26.952Z" fill="white" fill-opacity="0.5"/>
<path d="M34.3831 30.5625L17.1972 41.4375L0 30.5625L17.1972 0L34.3831 30.5625ZM17.1972 44.9297L0 34.0547L17.1972 60L34.3944 34.0547L17.1972 44.9297V44.9297Z" fill="white" fill-opacity="0.5"/>
</svg>
