<svg width="27" height="22" viewBox="0 0 27 22" fill="none" xmlns="http://www.w3.org/2000/svg">
<path d="M25.8429 8.8H1.15714C0.0925713 8.8 0 9.7834 0 11C0 12.2166 0.0925713 13.2 1.15714 13.2H25.8429C26.9074 13.2 27 12.2166 27 11C27 9.7834 26.9074 8.8 25.8429 8.8V8.8ZM25.8429 17.6H1.15714C0.0925713 17.6 0 18.5834 0 19.8C0 21.0166 0.0925713 22 1.15714 22H25.8429C26.9074 22 27 21.0166 27 19.8C27 18.5834 26.9074 17.6 25.8429 17.6V17.6ZM1.15714 4.4H25.8429C26.9074 4.4 27 3.4166 27 2.2C27 0.9834 26.9074 0 25.8429 0H1.15714C0.0925713 0 0 0.9834 0 2.2C0 3.4166 0.0925713 4.4 1.15714 4.4Z" fill="white"/>
</svg>
