<svg width="26" height="24" viewBox="0 0 26 24" fill="none" xmlns="http://www.w3.org/2000/svg">
<g clip-path="url(#clip0_33_11)">
<path d="M25.6445 20.7516L20.5816 16.0781C20.3531 15.8672 20.0434 15.75 19.7184 15.75H18.8906C20.2922 14.0953 21.125 12.0141 21.125 9.75C21.125 4.36406 16.3973 0 10.5625 0C4.72773 0 0 4.36406 0 9.75C0 15.1359 4.72773 19.5 10.5625 19.5C13.0152 19.5 15.2699 18.7313 17.0625 17.4375V18.2016C17.0625 18.5016 17.1895 18.7875 17.418 18.9984L22.4809 23.6719C22.9582 24.1125 23.7301 24.1125 24.2023 23.6719L25.6395 22.3453C26.1168 21.9047 26.1168 21.1922 25.6445 20.7516ZM10.5625 15.75C6.97227 15.75 4.0625 13.0688 4.0625 9.75C4.0625 6.43594 6.96719 3.75 10.5625 3.75C14.1527 3.75 17.0625 6.43125 17.0625 9.75C17.0625 13.0641 14.1578 15.75 10.5625 15.75Z" fill="white"/>
</g>
<defs>
<clipPath id="clip0_33_11">
<rect width="26" height="24" fill="white"/>
</clipPath>
</defs>
</svg>
